<svg width="640" height="640" viewBox="0 0 640 640" fill="none" xmlns="http://www.w3.org/2000/svg">
<g clip-path="url(#clip0_1_2)">
<path d="M244.589 636.498C251.603 551.999 276.653 536.499 200 451.5C243.086 464 298.196 477.5 374.347 430C436.972 538.999 436.972 562.001 451 634C384.868 649 323.747 640.998 244.589 636.498Z" fill="url(#paint0_linear_1_2)"/>
<path d="M374 430C436.5 539 436 562 450 634" stroke="black" stroke-width="6"/>
<path d="M325.5 479C319 468 325 448.5 322 455C319 461.5 315.889 468 311 479C319 486.5 334.5 505 334.5 505C334.5 505 328.682 530.5 334.5 554.5C338.5 571 366.5 588.5 366.5 579.5C359.5 571.5 342.5 561.5 342.5 552.5C344.5 539.5 346.244 505 342.5 498.5C337.741 490.237 334 490.5 325.5 479Z" fill="#919191"/>
<path d="M226.06 461C226.06 465.971 226.255 470 221.56 470C216.866 470 209.06 465.971 209.06 461C209.06 456.029 212.866 457 217.56 457C222.255 457 226.06 456.029 226.06 461Z" fill="#747474"/>
<path d="M256.5 465.5C236.5 465.5 233 463.5 226.5 465.5C212 473 246.5 488.5 254 524C263.5 563.5 251.532 610 252.5 637" stroke="#747474" stroke-width="8"/>
<path d="M366 582C368.5 598.5 376.447 608.051 382.5 622.5" stroke="black" stroke-width="3"/>
<path d="M329 580.5C314 560 295 500.5 301 493C307 485.5 311 479 311 479C311 479 325.5 494.5 335 505.5C336.5 511.5 313.5 573 367.5 582.5C393.5 536 349 494.5 349 494.5L353.5 467.5L365.5 475.5C373 489 385.5 505.5 392.5 521C395.538 532.916 397 553.5 394.122 563.5L367 585.5C367 585.5 345 582.5 329 580.5Z" fill="#D8D8DA"/>
<path d="M253.5 463C253.5 463 269.5 477.5 266 496.5C277 495.5 289 494 289 494L275.5 514.5L317 559.5M317 559.5C317 559.5 324.648 576.937 332 586.5C346.5 603 369.554 602 383.5 623.5C371.5 605 405.5 574.5 392.5 523.5M317 559.5C317 559.5 298.5 515 300 491.5C300.828 478.526 281.5 461 281.5 461M392.5 523.5C396.117 513.656 404.5 498.5 404.5 498.5L379.5 474L389 461L365 436M392.5 523.5C392.5 523.5 388.5 508 369 481C368.366 479.494 367.807 477.947 367.316 476.375M300 494C312.5 479.5 314.5 469.5 321.5 453.5M365 436.5C365 436.5 361.609 458.117 367.316 476.375M367.316 476.375L331.5 452M367.316 476.375L367.5 476.5M310.5 479L335 505.5C335 505.5 315.5 575.5 367.5 582.5M367.5 582.5C393.5 536 349 494.5 349 494.5L353.5 467.5M367.5 582.5L367 585.5M328 581L367 585.5M367 585.5L394 563.5" stroke="black" stroke-width="4"/>
<path d="M200 451.5C276.5 536.5 251.5 552 244.5 636.5" stroke="black" stroke-width="8"/>
<path d="M321 584C321 586.5 305 590.5 295 594C288 596.45 267.5 601.142 267.5 597C267.5 591.5 281.5 589.06 289.5 586.5C302 582.5 321 579.858 321 584Z" fill="#6F6F6F"/>
<path d="M240.5 601C222 609.5 217.5 616.5 205 616.5C195 611 212.5 557 226 527.5C230.347 518 234 509 235.5 501.5C235.5 501.5 254.202 521.796 245 523.5C233 525.722 212 597 214.5 599.5C219.5 602 240.5 580.12 273 578C296 578 295 588 296 590.5C304.5 589.5 320.5 581 321.5 584.5C315 589.5 301 602.5 274 602.5C265.5 605 269.5 631.5 265.5 631.5C261.5 631.5 262.5 628.5 262.5 594C269.5 591.5 277 592.5 281 592.5C280 588 277 588 274 588C264.5 588 250.5 596.405 240.5 601Z" fill="black"/>
<path d="M428.5 318.409C426.293 360.736 413.523 393.283 389.259 416.997C364.948 440.757 328.686 456.055 278.696 463.009C237.501 464.46 198.236 455.95 169.375 436.769C140.634 417.668 122.013 387.88 122 346.043C124.243 254.899 150.391 213.977 185.465 195.276C203.199 185.82 223.572 181.833 245.115 180.248C261.172 179.067 277.646 179.229 294.051 179.389C299.699 179.444 305.338 179.5 310.949 179.5C353.51 180.739 382.625 193.497 401.218 216.453C419.91 239.533 428.488 273.549 428.5 318.409Z" fill="#424041" stroke="black" stroke-width="7"/>
<path d="M423 320.5C419.5 346 414.5 379 376.5 422.5C356 439 322.622 454.206 280.5 457.5C230 466 123 434 134 335.5C134 259 171.5 244.13 191 236.5C215 227.109 292.5 194 351 189.5C377.5 199 429.5 217 423 320.5Z" fill="white"/>
<path d="M401 330C401 333.5 401 338 401.5 341.5C403 344 404 330.5 404 327C404 322 392 320.5 391.5 320.5C391.5 323.5 401.5 324 401 330Z" fill="#626262"/>
<path d="M398.5 332.5C400.5 339 400 345.5 401.5 346.5C402.605 346.5 403 333.5 401.5 328C400.409 324 389.5 323 389 323C390 326 396.5 326 398.5 332.5Z" fill="black"/>
<path d="M262 10.5C276.5 -28.5 22.5 81.5 45 94.5C66.2247 111.48 107.405 179.391 125.094 209.5C130.324 218.402 133.5 224 133.5 224L32.5 262.5L45.5 289.5C205.5 207 264 200.762 346.5 178.5C382.5 168.786 419.5 155 459.5 142.5L462 120.5C415.299 125.591 388.539 132.19 339.5 152.5C304.5 84.5 296.5 70 262 10.5Z" fill="black" stroke="black"/>
<path d="M336 146C333.641 141.185 332.327 138.54 330 134C248.345 156.485 203.283 172.827 125.5 210L131 219.5C207.589 183.442 253.088 168.677 336 146Z" fill="#404040" stroke="black"/>
<path d="M261 258.5C261 267.06 270.5 274.667 262.5 270C258.5 264.5 253.5 267.06 253.5 258.5C253.5 249.94 254.015 243 256.5 243C258.985 243 261 243 261 258.5Z" fill="#6F6F6F"/>
<path d="M182 314.5C184 318.5 188.657 328 187 328C184 328 178.5 319 176.5 315.5C172.5 308.5 175.843 308.5 177.5 308.5C179.157 308.5 180.156 310.812 182 314.5Z" fill="#6F6F6F"/>
<path d="M204.5 341.5L250.5 260.5" stroke="black" stroke-width="2"/>
<path d="M258 265.5L213 345.5" stroke="black" stroke-width="2"/>
<path d="M271.5 286.5L234.5 346.5" stroke="black" stroke-width="2"/>
<path d="M223.5 254L185.5 322.5" stroke="black" stroke-width="2"/>
<path d="M215.5 255L183 315.5" stroke="black" stroke-width="2"/>
<circle cx="227" cy="301" r="47" stroke="black" stroke-width="4"/>
<circle cx="157" cy="310" r="3" fill="black"/>
<circle cx="155" cy="317" r="3" fill="black"/>
<circle cx="158" cy="325" r="3" fill="black"/>
<circle cx="162" cy="333" r="3" fill="black"/>
<circle cx="162" cy="341" r="3" fill="black"/>
<circle cx="163" cy="349" r="3" fill="black"/>
<circle cx="162" cy="355" r="3" fill="black"/>
<circle cx="163" cy="361" r="3" fill="black"/>
<circle cx="164" cy="366" r="3" fill="black"/>
<circle cx="165" cy="372" r="3" fill="black"/>
<circle cx="166" cy="378" r="3" fill="black"/>
<circle cx="167" cy="384" r="3" fill="black"/>
<circle cx="167" cy="390" r="3" fill="black"/>
<circle cx="167" cy="397" r="3" fill="black"/>
<circle cx="166" cy="404" r="3" fill="black"/>
<circle cx="165" cy="411" r="3" fill="black"/>
<circle cx="163" cy="417" r="3" fill="black"/>
<path d="M173 426C173 430.418 174.209 438.5 172 438.5C169.791 438.5 165 434.418 165 430C165 425.582 162.791 420.5 165 420.5C167.209 420.5 173 421.582 173 426Z" fill="black"/>
<path d="M181.5 306.5C181.5 311 182.5 312 172.5 312C160.5 312 159 307.5 159 302.5C159 299.739 171.5 304.5 178.5 298.5C182 293 181.5 300 181.5 306.5Z" fill="black"/>
<path d="M184.5 281C182 290 183 296 175.5 296C164 297 160.5 292.761 160.5 290C160.5 287.239 172 291 179.5 284C183 278.5 184.5 278.239 184.5 281Z" fill="black"/>
<path d="M257 242.5C257 251.029 253.555 256.166 255.5 262C256.167 264 236.5 255.5 232.5 252.5C241.5 253.5 250 251 251.5 245.5C251.5 237.5 240.5 238 248.5 231C251.261 231 257 234 257 242.5Z" fill="black"/>
<path d="M329 235.146C329 236.471 317.622 240.876 314 247.5C310.829 253.299 312.5 260 311 261.5C307.5 259.5 309 247.5 305 243.5C295 239.5 293.5 237.5 291.5 231C291.5 228.515 295.5 230.5 307 233C318.5 235.5 329 232.66 329 235.146Z" fill="#454444"/>
<path d="M379.801 240.313C381.928 242.398 383.265 245.068 383.5 248.549C383.484 256.289 379.768 266.456 373.487 274.835C367.201 283.221 358.58 289.516 348.963 290C340.132 289.989 330.724 286.103 323.512 280.199C316.268 274.268 311.5 266.528 311.5 259C311.5 251.413 315.202 245.335 321.194 240.979C327.22 236.599 335.547 233.986 344.581 233.498C353.79 233 363.451 233.264 370.88 235.499C374.585 236.613 377.635 238.189 379.801 240.313Z" stroke="black" stroke-width="3"/>
<path d="M314 269.5C314 269.5 326 252.485 344 246C362 239.515 382 244 382 244" stroke="black" stroke-width="3"/>
<circle cx="366.5" cy="251.5" r="5.5" fill="black"/>
<path d="M333.5 230C333.5 232.485 319.822 232 308.5 232C297.178 232 297 229.485 297 227C297 224.515 300 222.783 312.5 225.5C325 228.217 333.5 227.515 333.5 230Z" fill="#454444"/>
<path d="M386 222.5C386 226 374.163 233 364 233C351.5 233 342.5 234 325.5 236.5C293.5 248 279.5 222 283 216.5C285.162 213.103 294 211.5 295 213.5C296 215.5 285.5 222.5 306 229C315.5 232.012 320.132 228 329 228C341.567 228 354 227.5 364 226.5C375 224 382.5 220 386 222.5Z" fill="black"/>
<path d="M334.5 317C347.5 317.69 346.5 330.5 360.5 325C367 321.75 366 317 360.5 307C355 297 348.219 296.399 334.5 296.5C318.224 296.619 307.264 304.368 297 317C289.449 326.294 288.635 334.421 284.5 346C282 353 280 358.5 275.5 364C271 369.5 268 370.5 263.5 370.5C259 370 252.649 369.171 254 362C254.565 359.003 255.95 356.972 259 357C264.5 359 254.5 362 260.5 366C264.5 367 265.5 365 266 361.5C266.5 358 263.96 353.331 259 353C252.35 352.556 247.5 361.5 248.5 367C252 375 258.056 376.515 266 376.5C276.5 376.481 281.216 374.369 288 367C305.54 336.855 321.5 316.31 334.5 317Z" fill="black"/>
<path d="M395.5 299C384.5 307.5 392 316.569 380.5 320C373.536 322.078 369.332 318.556 366.5 307.5C363.81 297 372.5 290 381 284.5C394.5 275.765 409.372 275.312 425.5 277.5C437 280 442.5 286 460.5 289.5C467.73 290.906 470.557 287.577 476.5 282C481.5 277.308 484 265 475.5 265C473.5 269 481.147 269.561 477 276C473 277.5 473 274.5 471 270C469.444 266.5 469 263.5 473 260.5C478.5 256.375 483.87 260.5 486 266.5C488.922 274.729 487.167 284.5 482.5 290.5C475.5 299.5 465.49 303.232 455.5 302.5C429 300.559 436.5 293.509 422 292.5C410.309 291.686 400.159 294.083 395.5 299Z" fill="black"/>
<path d="M384.5 340.5C382.5 343.5 364.5 340.5 356.5 344.5C348.5 348 349.833 350.5 347.5 349.5C346 348.857 346.5 341.5 361.5 338.5C370.5 336.7 386 337 384.5 340.5Z" fill="black"/>
<path d="M379 351.5C366 354 371 357.5 364 361.5C360 363 355.5 361 354 359.5C353 358.5 350 353.5 365 350.5C371.5 349.2 379 350.5 379 351.5Z" fill="#464243"/>
<path d="M330.5 349.5C332.5 357.5 337.5 359.5 338.5 364.5C337.395 364.5 324.5 357.232 324.5 349.5C324.5 343.5 333.5 339.5 334 339.5C334 342.5 330 343.5 330.5 349.5Z" fill="#626262"/>
<path d="M334.5 348.5C336.5 356.5 341 360 342 365C340.895 365 329 357.232 329 349.5C329 341.768 337.5 338 338 338C338 341 334 342.5 334.5 348.5Z" fill="black"/>
<path d="M388 457C398.5 458.5 412 461 429 469.5C446 478 461 487.5 466.5 487.5C471.5 486 477 483 501 458C509.5 445 512.287 433 521.5 420C527.905 410.963 524.5 413.5 537 401C544 396.5 553.5 401 570.5 398.5" stroke="black" stroke-width="11"/>
<path d="M564.5 402.5C559.023 400.413 552.698 401.358 552.5 395.5C551.5 391 559.5 381.5 559.5 381.5L567 371.5L571.009 380C578.16 379.203 586 378.64 586 380C586 383 581.936 387.364 582 392.5C582.059 397.251 586 398.5 584 403.5C577 404.5 571.5 402.5 564.5 402.5Z" fill="black"/>
<path d="M559.5 381.5C559.5 381.5 551.5 391 552.5 395.5C552.698 401.358 559.023 400.413 564.5 402.5C571.5 402.5 577 404.5 584 403.5C586 398.5 582.059 397.251 582 392.5C581.936 387.364 586 383 586 380C586 378.64 578.16 379.203 571.009 380M559.5 381.5L567 371.5L571.009 380M559.5 381.5C559.5 381.5 565.012 380.668 571.009 380" stroke="black" stroke-width="4"/>
<path d="M572 376V432" stroke="black" stroke-width="6"/>
<path d="M602 341.5C606 351.5 572 377 572 377C572 377 544 352 546 339.5C556.5 336 563.5 336.5 574.5 338.5C584 334 597.2 329.5 602 341.5Z" fill="#6C0113"/>
<path d="M601.5 296.5H546.5C546.5 296.5 542.983 338.5 546.5 347C550.016 355.5 572 377 572 377C572 377 597.5 357 601.5 347C605.5 337 601.5 296.5 601.5 296.5Z" stroke="black" stroke-width="4"/>
<path d="M572 430L597.115 439H546.885L572 430Z" fill="black"/>
</g>
<defs>
<linearGradient id="paint0_linear_1_2" x1="376.5" y1="557" x2="480" y2="517.5" gradientUnits="userSpaceOnUse">
<stop stop-color="white"/>
<stop offset="1"/>
</linearGradient>
<clipPath id="clip0_1_2">
<rect width="640" height="640" fill="white"/>
</clipPath>
</defs>
</svg>
